<svg xmlns="http://www.w3.org/2000/svg" viewBox="0 0 205.42 152.3"><defs><style>.cls-1{fill:#5aab83;}</style></defs><title>Asset 1</title><g id="Layer_2" data-name="Layer 2"><g id="圖層_1" data-name="圖層 1"><path class="cls-1" d="M155.84,152.29,127.5,95.63h0L99.17,152.29h15.94L127.5,124h0v0l12.39,28.31ZM127.5,124h0Z"/><polygon class="cls-1" points="205.42 152.29 131.04 3.54 131.04 3.54 127.5 0 123.96 3.54 123.96 3.54 49.58 152.29 67.29 152.29 102.71 74.38 102.71 74.38 123.96 31.88 127.5 28.33 131.04 31.88 131.04 31.87 152.29 74.37 152.29 74.37 187.71 152.29 205.42 152.29"/><polygon class="cls-1" points="95.63 31.88 81.46 3.54 81.46 3.54 77.92 0 74.38 3.54 74.38 3.54 0 152.29 17.71 152.29 53.13 74.38 53.13 74.38 74.38 31.87 77.92 28.33 81.46 31.88 81.46 31.87 88.54 46.04 95.63 31.88"/></g></g></svg>